<?xml version="1.0" standalone="no"?>
<!DOCTYPE svg PUBLIC "-//W3C//DTD SVG 20010904//EN"
 "http://www.w3.org/TR/2001/REC-SVG-20010904/DTD/svg10.dtd">
<svg version="1.0" xmlns="http://www.w3.org/2000/svg"
 width="3264.000000pt" height="3264.000000pt" viewBox="0 0 3264.000000 3264.000000"
 preserveAspectRatio="xMidYMid meet">
<metadata>
Created by potrace 1.16, written by Peter Selinger 2001-2019
</metadata>
<g transform="translate(0.000000,3264.000000) scale(0.100000,-0.100000)"
fill="#000000" stroke="none">
<path d="M15207 17095 c-43 -18 -80 -35 -84 -39 -3 -3 -13 -6 -21 -6 -20 0
-353 -155 -443 -207 -42 -23 -79 -43 -82 -43 -10 0 -293 -176 -360 -224 -89
-63 -248 -184 -282 -214 -16 -15 -55 -48 -85 -73 -30 -24 -104 -92 -164 -149
-59 -58 -113 -107 -118 -109 -6 -2 -14 2 -18 9 -12 20 -35 5 -54 -34 -9 -20
-19 -36 -22 -36 -3 0 -2 6 2 13 4 6 -13 -7 -37 -30 -32 -31 -45 -52 -47 -75
-2 -18 -9 -36 -16 -40 -9 -5 -14 -26 -14 -58 -1 -27 -5 -57 -10 -67 -5 -10 -9
-34 -11 -53 -1 -19 -8 -38 -15 -42 -8 -5 -12 -17 -9 -28 4 -14 0 -20 -10 -20
-20 0 -49 -29 -42 -41 4 -5 2 -9 -4 -9 -5 0 -13 -10 -17 -22 -4 -13 -17 -36
-29 -53 -21 -28 -23 -40 -22 -162 0 -93 -4 -137 -13 -148 -7 -8 -9 -15 -5 -15
4 0 2 -6 -4 -14 -7 -8 -10 -25 -7 -39 2 -14 -2 -34 -9 -44 -8 -10 -15 -26 -15
-35 0 -10 -6 -18 -13 -18 -6 0 -18 -15 -26 -32 -8 -18 -24 -44 -36 -58 -23
-27 -34 -103 -16 -115 6 -3 11 -33 11 -65 0 -39 5 -64 15 -74 17 -16 20 -53 6
-58 -6 -1 -11 -42 -13 -90 -1 -47 -6 -84 -10 -82 -5 3 -8 -4 -8 -15 0 -12 5
-21 11 -21 6 0 -2 -24 -19 -53 -18 -32 -29 -66 -29 -87 1 -20 -3 -42 -8 -50
-9 -15 -28 -183 -29 -267 -1 -29 -3 -53 -6 -53 -3 0 -7 -30 -8 -67 -2 -36 -5
-70 -8 -75 -3 -5 0 -15 6 -23 7 -8 9 -26 6 -40 -4 -15 -2 -25 4 -25 6 0 2 -14
-10 -30 -18 -25 -19 -34 -10 -45 9 -11 9 -15 1 -15 -6 0 -11 -15 -11 -33 0
-19 -8 -42 -19 -54 -15 -16 -17 -23 -8 -32 9 -9 8 -11 -4 -6 -13 5 -16 -1 -14
-37 1 -27 -4 -50 -14 -61 -9 -11 -17 -42 -18 -75 -3 -72 -5 -82 -13 -82 -8 0
-12 -89 -10 -201 1 -70 -1 -79 -22 -93 -15 -11 -18 -16 -8 -17 8 0 5 -4 -7 -9
-13 -5 -23 -14 -23 -20 0 -5 -5 -10 -11 -10 -5 0 -7 6 -3 13 5 9 3 9 -7 -1 -8
-7 -15 -30 -15 -50 -2 -29 6 -47 34 -82 20 -24 30 -40 23 -35 -11 6 -13 4 -8
-7 3 -9 -2 -26 -10 -38 -9 -13 -17 -46 -18 -78 -1 -42 -7 -60 -25 -79 -14 -15
-24 -38 -26 -63 -1 -22 -6 -50 -10 -62 -7 -21 -10 -47 -13 -121 -1 -16 -5 -26
-10 -22 -13 7 -19 -20 -20 -84 0 -30 -5 -57 -9 -60 -5 -3 -10 -32 -11 -63 -1
-32 -8 -70 -15 -85 -9 -19 -13 -72 -12 -165 1 -75 -2 -134 -6 -131 -5 2 -8 -3
-8 -11 0 -9 5 -16 12 -16 6 0 3 -6 -7 -14 -10 -7 -16 -20 -12 -29 3 -8 -3 -31
-13 -50 -11 -20 -20 -51 -20 -69 0 -50 -3 -69 -8 -63 -13 12 -35 -43 -38 -94
-2 -30 -8 -57 -14 -59 -5 -2 -8 -8 -5 -12 3 -5 -4 -26 -15 -47 -11 -21 -20
-48 -20 -60 0 -12 -4 -24 -9 -27 -5 -3 -9 -31 -10 -62 0 -31 -5 -62 -12 -70
-6 -8 -12 -38 -14 -67 -1 -33 -10 -65 -23 -87 -12 -20 -22 -52 -22 -72 0 -47
-1 -50 -16 -66 -8 -8 -12 -35 -11 -72 2 -41 -2 -61 -10 -64 -8 -4 -13 -24 -13
-56 0 -28 -6 -66 -14 -84 -9 -22 -14 -76 -15 -154 -1 -87 -6 -129 -17 -152
-10 -19 -15 -48 -12 -75 2 -25 0 -45 -4 -45 -12 0 -21 -69 -11 -83 5 -6 9 -21
9 -32 -1 -11 4 -23 9 -27 6 -5 3 -8 -6 -8 -14 0 -16 -22 -15 -192 0 -106 5
-199 10 -207 6 -9 5 -12 -1 -8 -6 4 -10 -4 -10 -18 0 -14 5 -25 11 -25 6 0 4
-5 -4 -10 -13 -8 -13 -13 -2 -31 8 -11 9 -18 3 -14 -16 9 -13 -7 5 -33 8 -12
11 -22 6 -22 -19 0 -22 -45 -5 -57 10 -8 12 -13 4 -13 -7 0 -9 -5 -4 -12 4 -7
9 -42 11 -78 2 -35 8 -70 13 -77 6 -7 11 -44 10 -83 0 -39 4 -70 9 -70 6 0 9
-3 8 -7 -4 -18 15 -124 23 -129 5 -3 9 -16 9 -30 0 -13 3 -24 8 -24 4 0 8 -16
9 -36 1 -20 6 -41 12 -47 5 -5 7 -15 5 -22 -3 -7 -1 -16 5 -20 6 -3 11 -21 11
-39 0 -17 5 -37 12 -44 6 -6 13 -21 15 -33 2 -11 10 -30 17 -41 8 -11 12 -27
9 -35 -3 -8 3 -20 13 -28 11 -7 16 -17 12 -21 -4 -4 -1 -19 6 -33 7 -14 18
-37 24 -51 25 -63 48 -110 53 -110 4 0 10 -11 13 -25 4 -14 11 -25 16 -25 6 0
10 -9 10 -20 0 -11 5 -20 12 -20 6 0 8 -3 5 -6 -4 -4 2 -19 12 -33 10 -14 20
-30 22 -36 7 -18 71 -115 75 -115 3 0 2 5 -2 12 -4 7 -3 8 5 4 6 -4 9 -11 7
-15 -3 -4 6 -20 20 -36 13 -15 24 -34 24 -42 0 -7 7 -13 15 -13 8 0 12 -6 9
-14 -4 -9 19 -40 58 -81 34 -36 81 -86 103 -110 22 -24 46 -44 53 -44 7 -1 11
-5 8 -10 -5 -7 56 -71 78 -82 5 -2 32 -28 60 -56 28 -29 58 -53 67 -53 9 0 19
-7 23 -15 3 -8 12 -15 20 -15 9 0 20 -9 26 -20 6 -11 15 -18 21 -15 5 4 8 1 7
-5 -3 -13 38 -42 85 -61 15 -6 27 -14 27 -19 0 -4 9 -10 20 -13 11 -3 20 -12
20 -21 0 -10 9 -16 26 -16 14 0 22 -4 19 -10 -3 -5 5 -12 19 -16 14 -3 31 -13
37 -21 12 -13 69 -43 96 -48 16 -4 62 -38 63 -47 0 -5 14 -8 31 -8 16 0 28 -4
25 -9 -3 -5 6 -12 21 -16 15 -3 33 -15 40 -25 7 -10 32 -21 55 -25 24 -4 55
-16 69 -26 14 -10 37 -21 52 -24 15 -4 30 -11 33 -16 3 -5 21 -9 40 -9 19 0
33 -4 30 -9 -3 -5 6 -12 21 -16 17 -4 29 -2 34 7 5 7 9 9 9 4 0 -5 9 -1 20 9
11 10 17 22 14 26 -3 5 -1 9 3 9 5 0 17 20 27 45 11 25 23 45 27 45 17 0 91
82 85 95 -3 9 0 12 10 8 7 -3 14 0 14 7 0 15 26 41 34 33 6 -6 10 12 7 30 -1
5 3 6 8 2 15 -8 31 29 31 70 0 20 5 46 11 57 8 15 8 26 -1 44 -8 14 -10 38 -6
63 3 23 3 41 -2 41 -11 0 -4 392 8 404 13 13 13 53 0 61 -13 8 -13 62 -1 70 6
3 10 35 10 72 0 38 4 69 11 73 6 4 14 41 17 83 3 42 10 74 14 71 5 -3 9 19 9
49 0 30 7 68 15 83 8 16 15 43 15 60 0 16 5 35 12 42 7 7 9 12 4 12 -4 0 1 13
10 30 20 33 13 54 -37 109 -15 17 -26 31 -23 31 9 0 -31 56 -63 88 -18 18 -39
45 -47 60 -22 42 -86 112 -102 112 -9 0 -13 4 -10 9 6 9 -75 101 -89 101 -6 0
-16 9 -23 20 -7 12 -16 18 -21 16 -5 -3 -12 4 -16 17 -11 32 -12 67 -3 61 4
-3 8 25 8 61 0 43 4 64 10 60 6 -4 10 -3 9 2 -5 31 3 153 10 149 16 -10 21 48
5 60 -17 14 -19 28 -1 18 9 -6 9 -4 -1 8 -13 17 -7 68 9 68 4 0 7 42 6 94 -2
52 1 92 5 90 5 -3 8 9 8 28 -1 18 6 62 14 98 17 77 29 152 30 198 1 17 4 32 9
32 4 0 7 18 7 39 0 22 4 42 9 45 10 6 27 127 24 165 -1 14 2 30 7 36 5 6 8
104 8 219 -1 169 2 210 13 216 9 5 15 30 17 66 2 32 8 66 13 75 5 10 9 42 9
72 0 36 5 59 15 67 10 9 15 32 15 76 0 34 5 66 10 69 6 3 10 33 10 66 0 40 5
65 15 75 10 11 15 36 15 85 0 39 4 69 10 69 6 0 10 28 10 64 0 42 5 69 14 79
13 13 17 38 32 192 3 33 12 68 20 79 8 12 14 46 14 83 0 35 4 63 10 63 6 0 10
28 10 63 0 37 5 69 13 76 10 11 9 13 -3 7 -11 -6 -11 -4 1 6 11 8 17 30 17 59
2 63 4 71 26 90 14 12 20 30 20 67 1 32 6 54 14 57 6 2 12 17 12 33 0 16 10
49 23 73 14 27 24 65 26 99 2 30 6 60 10 65 12 16 13 83 1 90 -13 8 -13 52 0
60 6 3 10 18 10 32 0 14 8 32 18 39 15 13 14 13 -8 5 -18 -6 -31 -5 -45 5 -17
13 -19 26 -18 123 2 95 10 169 43 391 4 30 11 62 14 70 3 8 11 47 17 85 20
128 27 169 44 260 9 50 20 115 25 145 5 30 16 93 25 140 9 47 20 112 26 145 5
33 16 94 24 135 28 133 36 212 43 391 l7 175 76 100 c42 54 97 135 122 179 58
101 75 116 162 144 109 36 189 77 262 136 66 54 68 54 84 35 18 -21 29 -17 29
12 0 10 7 18 15 18 8 0 15 7 15 16 0 8 5 12 10 9 6 -3 10 1 10 10 0 8 7 18 15
21 8 4 15 15 15 25 0 10 5 19 10 19 6 0 10 11 10 25 0 14 7 28 15 31 10 4 13
13 9 26 -4 13 -2 18 4 14 13 -8 22 17 22 59 0 18 6 38 14 44 9 8 13 30 12 67
-2 35 2 59 11 66 16 13 18 138 3 138 -5 0 -10 7 -10 15 0 8 -4 15 -10 15 -5 0
-10 5 -10 11 0 5 4 8 8 5 5 -3 8 19 7 49 0 36 4 56 12 59 9 4 13 27 13 70 0
41 4 66 12 68 8 3 13 28 14 65 1 34 5 67 10 74 10 17 15 89 5 89 -4 0 -8 14
-9 30 -1 17 2 30 8 30 11 0 14 232 3 244 -4 4 -14 -3 -23 -14 l-16 -22 -105
27 c-57 15 -165 42 -239 62 -74 19 -160 41 -191 49 -72 18 -80 17 -172 -21z"/>
<path d="M16897 16818 c-34 -5 -66 -17 -78 -29 -21 -21 -49 -26 -49 -8 0 8 -5
8 -15 -1 -8 -7 -15 -25 -15 -40 0 -16 -5 -30 -12 -32 -7 -3 -14 -32 -16 -76
-2 -40 -8 -72 -12 -72 -4 0 -8 -30 -9 -66 -1 -42 -7 -72 -17 -81 -8 -9 -14
-34 -14 -67 0 -28 -4 -56 -9 -62 -6 -5 -11 -35 -12 -66 -1 -33 -7 -56 -13 -55
-6 1 -12 -8 -14 -20 -2 -13 -8 -23 -13 -23 -5 0 -9 -26 -9 -59 0 -40 -5 -63
-15 -71 -10 -8 -15 -31 -15 -66 0 -29 -4 -56 -10 -59 -17 -10 -12 -115 5 -121
17 -7 20 -57 6 -118 -5 -21 -13 -91 -16 -155 l-7 -117 74 -76 c97 -98 208
-237 208 -260 0 -10 -7 -21 -15 -24 -13 -5 -11 -11 10 -32 14 -13 25 -30 25
-38 0 -16 33 -74 43 -74 12 0 8 -26 -8 -56 -9 -16 -15 -49 -14 -74 2 -25 -2
-44 -7 -43 -5 1 -10 -26 -12 -60 -2 -34 -9 -69 -17 -77 -7 -9 -13 -40 -14 -74
0 -32 -5 -64 -11 -71 -8 -10 -7 -14 2 -18 10 -4 10 -6 1 -6 -9 -1 -13 -18 -13
-48 0 -27 -7 -57 -15 -67 -9 -12 -15 -42 -15 -77 0 -32 -4 -61 -10 -64 -13 -8
-13 -115 0 -115 7 0 7 -6 0 -19 -5 -11 -10 -47 -10 -80 0 -34 -4 -61 -10 -61
-18 0 -23 -68 -6 -101 14 -29 14 -34 1 -49 -31 -34 -5 -189 31 -190 6 0 17 -6
23 -13 6 -8 24 -14 40 -15 17 0 39 -5 50 -11 11 -6 33 -11 50 -11 18 0 34 -7
40 -17 6 -10 11 -14 11 -9 0 4 11 1 25 -8 20 -13 49 -16 148 -15 69 0 128 6
135 12 9 7 16 7 24 -1 15 -15 65 -16 73 -2 4 6 30 10 58 9 64 -1 90 4 95 19 2
7 12 12 22 12 10 0 22 5 25 10 3 6 18 10 32 10 24 0 71 21 103 47 9 7 33 11
55 10 28 -1 39 2 38 11 -2 7 8 12 26 12 20 0 37 9 53 29 23 26 33 29 124 39
54 6 137 11 184 12 46 0 87 4 91 8 8 8 52 248 73 397 24 174 7 808 -29 1060
-39 279 -141 588 -267 810 -208 365 -522 657 -927 862 -128 65 -137 67 -234
51z"/>
<path d="M15726 11608 c-8 -14 -14 -45 -13 -76 1 -30 -3 -57 -8 -60 -14 -9
-48 -214 -39 -236 4 -9 0 -24 -9 -34 -8 -9 -18 -46 -22 -82 -4 -36 -10 -74
-13 -85 -3 -11 -6 -38 -6 -60 -1 -22 -5 -47 -11 -55 -13 -19 -36 -159 -39
-226 0 -28 -7 -58 -13 -66 -7 -8 -13 -44 -15 -80 -1 -37 -5 -65 -9 -62 -10 6
-21 -79 -13 -100 4 -10 0 -24 -10 -35 -9 -10 -16 -31 -14 -47 1 -16 -4 -53
-11 -82 -8 -29 -10 -69 -6 -90 3 -20 9 -63 12 -95 3 -37 9 -55 15 -50 7 3 8 1
4 -6 -4 -6 -2 -18 4 -26 6 -8 9 -18 6 -23 -9 -16 10 -97 22 -94 7 1 11 -4 10
-10 -2 -9 16 -14 59 -16 38 -2 66 -8 73 -17 9 -10 33 -15 76 -15 36 0 64 -4
64 -10 0 -6 31 -10 74 -10 56 0 75 -4 80 -15 3 -8 12 -12 21 -9 8 3 15 1 15
-6 0 -6 -4 -9 -8 -6 -4 2 -8 -63 -9 -145 -1 -92 -5 -155 -12 -163 -13 -15 -12
-65 2 -83 6 -8 3 -18 -7 -28 -9 -9 -15 -31 -14 -50 1 -19 -5 -41 -12 -50 -7
-8 -9 -15 -5 -15 4 0 -1 -12 -10 -27 -10 -14 -19 -48 -20 -74 -1 -30 -10 -59
-26 -80 -12 -18 -24 -48 -26 -67 -1 -20 -10 -40 -21 -48 -10 -7 -27 -32 -38
-56 -22 -51 -22 -51 -101 -136 -35 -37 -63 -72 -63 -78 0 -6 -6 -11 -13 -11
-21 0 -67 -35 -60 -46 3 -6 1 -7 -6 -3 -6 4 -22 1 -34 -7 -12 -8 -26 -15 -32
-17 -5 -1 -21 -10 -35 -20 -14 -10 -44 -22 -65 -26 -60 -11 -107 -33 -99 -46
4 -6 3 -8 -4 -4 -12 7 -21 -4 -27 -34 -2 -12 -13 -29 -23 -38 -11 -9 -30 -44
-43 -77 -13 -33 -32 -66 -42 -73 -10 -8 -16 -19 -14 -25 2 -7 -3 -20 -11 -30
-9 -10 -16 -33 -16 -52 0 -18 -4 -33 -10 -32 -12 3 -28 -71 -23 -102 3 -14 -1
-34 -9 -46 -7 -11 -12 -41 -11 -67 1 -26 -4 -53 -12 -62 -7 -9 -11 -22 -8 -31
4 -8 1 -17 -5 -21 -6 -4 -8 -23 -5 -45 3 -22 1 -42 -4 -45 -5 -3 -7 -9 -4 -14
3 -5 1 -11 -4 -15 -5 -3 -8 -35 -6 -70 2 -36 -1 -68 -6 -71 -5 -3 -6 3 -2 13
4 14 3 15 -6 7 -7 -6 -14 -37 -16 -67 -2 -31 -6 -61 -10 -67 -3 -5 -3 -14 0
-20 3 -5 2 -10 -4 -10 -5 0 -9 -23 -7 -51 1 -31 -3 -54 -11 -61 -7 -6 -13 -22
-13 -37 1 -14 -4 -48 -11 -76 -6 -27 -12 -73 -13 -100 -2 -28 -8 -59 -13 -70
-6 -11 -11 -44 -11 -73 0 -49 3 -56 46 -100 26 -26 46 -50 44 -54 -2 -7 5 -9
24 -7 3 0 15 -12 26 -26 12 -15 27 -24 35 -21 8 3 11 1 8 -4 -3 -6 3 -10 14
-10 11 0 32 -11 46 -24 17 -16 38 -24 65 -24 22 0 44 -4 50 -7 6 -4 38 -9 73
-12 34 -3 66 -9 71 -14 15 -14 86 -11 86 4 0 9 3 8 9 -2 6 -9 11 -10 15 -2 9
14 46 15 46 1 0 -5 7 -10 15 -10 8 0 15 6 15 13 0 10 21 12 86 9 47 -2 91 1
97 6 7 6 35 13 62 17 28 4 56 13 64 19 12 9 13 8 6 -4 -8 -13 -7 -13 10 0 10
8 26 14 37 12 11 -2 18 3 18 12 0 14 3 14 21 4 17 -10 23 -10 26 -1 2 7 11 9
19 6 8 -3 20 0 28 6 7 6 16 8 19 4 4 -3 7 -1 7 5 0 7 17 12 44 12 25 0 47 4
50 9 3 5 18 12 33 16 15 3 31 11 34 17 6 10 86 14 96 5 2 -3 5 -14 6 -25 0
-11 5 -18 9 -16 4 3 8 -11 8 -31 0 -22 6 -38 15 -41 8 -4 15 -14 15 -24 0 -10
7 -23 15 -30 9 -7 13 -15 11 -17 -7 -8 36 -84 50 -90 8 -3 11 -9 8 -14 -3 -5
2 -9 11 -9 9 0 14 -3 12 -7 -6 -10 19 -34 26 -27 3 3 8 -4 12 -15 3 -12 14
-21 23 -22 12 0 13 -2 4 -6 -10 -4 -9 -9 4 -24 9 -10 23 -19 31 -19 7 0 16 -7
19 -15 4 -8 13 -15 21 -15 8 0 24 -11 35 -25 13 -17 29 -25 49 -25 28 0 58
-12 90 -37 8 -7 28 -13 45 -13 16 0 85 -1 153 -2 150 -4 166 4 170 76 1 25 8
61 16 79 8 19 13 56 11 83 -4 57 2 76 18 67 6 -3 6 -1 -1 8 -16 16 -17 33 -2
23 7 -4 10 4 8 22 -1 16 3 42 10 57 6 16 9 33 5 38 -3 5 -1 9 5 9 6 0 11 21
11 48 0 26 1 55 1 65 0 9 4 15 10 12 5 -4 9 -1 9 4 0 6 -6 11 -12 11 -10 0
-10 2 -1 8 7 4 11 21 9 37 -1 17 5 46 15 66 10 20 18 54 17 75 -1 46 3 66 17
77 6 4 4 11 -5 17 -10 7 -11 10 -2 10 9 0 11 13 8 45 -2 25 -1 45 4 45 13 0
33 59 27 80 -3 12 -1 35 5 53 16 54 19 89 6 106 -7 9 -8 13 -3 8 9 -8 37 62
29 75 -3 4 0 8 5 8 15 0 14 43 -1 58 -9 9 -9 12 0 12 7 0 12 13 12 31 0 16 4
28 9 25 5 -3 8 15 7 42 -1 29 5 61 16 84 20 42 23 74 7 84 -6 3 -7 9 -3 13 5
3 14 21 21 39 8 24 8 32 0 32 -9 0 -9 2 0 8 6 4 10 23 9 42 -1 19 4 42 11 51
17 21 28 79 15 79 -6 0 -1 24 10 56 17 47 19 63 10 92 -8 27 -8 38 2 48 8 7
14 30 14 51 1 21 11 58 23 83 14 28 23 67 25 105 1 38 6 59 13 58 11 -3 13 5
15 59 1 15 12 41 24 58 13 17 25 43 27 58 2 15 8 47 14 71 5 25 8 101 6 170
-1 69 1 134 7 144 5 9 6 23 2 29 -11 18 -4 102 9 110 6 3 12 36 13 72 1 36 6
72 12 78 5 7 9 29 8 48 -2 19 5 58 15 85 9 28 17 58 18 68 0 9 1 54 1 99 1 47
7 89 13 97 10 12 9 13 -2 6 -10 -5 -12 -4 -7 3 4 7 13 12 20 12 8 0 16 10 20
23 9 32 7 87 -2 87 -12 0 2 98 16 112 7 7 12 20 12 29 0 9 7 22 15 29 8 7 12
16 9 21 -3 5 -1 9 5 9 6 0 9 24 8 56 -2 30 1 58 5 60 11 7 10 44 -2 44 -5 0
-6 7 -3 17 4 9 2 14 -3 11 -5 -4 -9 15 -9 42 0 26 3 46 7 44 10 -7 21 61 13
85 -4 12 0 30 9 43 19 27 21 99 4 116 -10 10 -10 15 1 22 10 6 15 29 15 79 0
39 3 71 6 71 9 0 12 69 3 83 -11 19 -9 51 5 65 16 18 15 55 -2 97 -10 22 -11
35 -4 35 6 0 8 16 4 43 -3 23 -8 56 -10 74 -6 46 -13 53 -51 53 -18 0 -35 5
-37 10 -2 6 -37 13 -78 15 -41 3 -76 10 -78 15 -2 6 -29 10 -61 10 -31 0 -61
4 -67 9 -9 10 -105 27 -204 37 -30 3 -58 11 -62 17 -4 7 -8 9 -8 5 0 -5 -8 0
-19 11 -12 12 -34 19 -64 19 -25 1 -61 10 -80 21 -19 11 -38 17 -41 14 -3 -4
-6 -2 -6 4 0 19 -68 13 -73 -5 -4 -16 -5 -16 -6 0 -1 15 -14 16 -113 13 -62
-1 -132 1 -155 5 -27 5 -43 4 -43 -3 0 -6 -5 -5 -13 1 -8 7 -29 9 -50 5 -20
-3 -42 -1 -49 4 -7 6 -42 11 -78 12 -44 2 -67 7 -73 17 -5 8 -24 14 -48 14
-22 0 -38 4 -35 8 2 4 -7 9 -21 10 -15 1 -34 8 -42 15 -11 9 -56 14 -146 15
-75 1 -131 6 -133 12 -5 14 -96 12 -110 -2 -10 -10 -17 -10 -32 0 -11 6 -38
12 -60 12 -30 0 -43 -5 -54 -22z"/>
</g>
</svg>
